{
	"asset":{
		"generator":"Khronos glTF Blender I/O v5.1.20",
		"version":"2.0"
	},
	"scene":0,
	"scenes":[
		{
			"name":"Scene",
			"nodes":[
				0,
				20
			]
		}
	],
	"nodes":[
		{
			"mesh":0,
			"name":"Circle"
		},
		{
			"name":"Center",
			"translation":[
				0,
				-4.76837158203125e-07,
				0
			]
		},
		{
			"name":"r1w",
			"translation":[
				-2.284662961959839,
				-4.76837158203125e-07,
				0
			]
		},
		{
			"name":"r2w",
			"translation":[
				-3.488290309906006,
				-4.76837158203125e-07,
				0
			]
		},
		{
			"name":"r1n",
			"translation":[
				-0.00692403269931674,
				-9.5367431640625e-07,
				-2.229210615158081
			]
		},
		{
			"name":"r2n",
			"translation":[
				0.02921234630048275,
				-9.5367431640625e-07,
				-3.432295799255371
			]
		},
		{
			"name":"r1nw",
			"translation":[
				-1.5782160758972168,
				-4.76837158203125e-07,
				-1.630646824836731
			]
		},
		{
			"name":"r2nw",
			"translation":[
				-2.5007433891296387,
				-4.76837158203125e-07,
				-2.403733253479004
			]
		},
		{
			"name":"r1ne",
			"translation":[
				1.6503535509109497,
				-9.5367431640625e-07,
				-1.5779660940170288
			]
		},
		{
			"name":"r2ne",
			"translation":[
				2.4731829166412354,
				-9.5367431640625e-07,
				-2.4564149379730225
			]
		},
		{
			"name":"r1e",
			"translation":[
				2.275456190109253,
				-9.5367431640625e-07,
				0.059415459632873535
			]
		},
		{
			"name":"r2e",
			"translation":[
				3.475206136703491,
				-9.5367431640625e-07,
				-0.03712737560272217
			]
		},
		{
			"name":"r1se",
			"translation":[
				1.670523762702942,
				-9.5367431640625e-07,
				1.5027539730072021
			]
		},
		{
			"name":"r2se",
			"translation":[
				2.564460039138794,
				-9.5367431640625e-07,
				2.3087308406829834
			]
		},
		{
			"name":"r1s",
			"translation":[
				-0.023823201656341553,
				-9.5367431640625e-07,
				2.2179269790649414
			]
		},
		{
			"name":"r2s",
			"translation":[
				0.0015327929286286235,
				-9.5367431640625e-07,
				3.421288013458252
			]
		},
		{
			"name":"r1sw",
			"translation":[
				-1.857729434967041,
				-9.5367431640625e-07,
				1.706726312637329
			]
		},
		{
			"name":"r2sw",
			"translation":[
				-2.644728660583496,
				-9.5367431640625e-07,
				2.617414951324463
			]
		},
		{
			"name":"neutral_bone",
			"rotation":[
				-0.7071067690849304,
				0,
				0,
				0.7071067690849304
			]
		},
		{
			"mesh":1,
			"name":"Water",
			"skin":0
		},
		{
			"children":[
				19,
				1,
				2,
				3,
				4,
				5,
				6,
				7,
				8,
				9,
				10,
				11,
				12,
				13,
				14,
				15,
				16,
				17,
				18
			],
			"name":"Armature",
			"scale":[
				0.3510550558567047,
				0.3510550558567047,
				0.3510550558567047
			],
			"translation":[
				0,
				1.8307048082351685,
				0
			]
		}
	],
	"materials":[
		{
			"doubleSided":true,
			"name":"Brick",
			"pbrMetallicRoughness":{
				"baseColorTexture":{
					"index":0
				},
				"metallicFactor":0,
				"roughnessFactor":0.5
			}
		},
		{
			"doubleSided":true,
			"name":"Wood",
			"pbrMetallicRoughness":{
				"baseColorTexture":{
					"index":1
				},
				"metallicFactor":0,
				"roughnessFactor":0.5
			}
		},
		{
			"doubleSided":true,
			"name":"Rope",
			"pbrMetallicRoughness":{
				"baseColorTexture":{
					"index":2
				},
				"metallicFactor":0,
				"roughnessFactor":0.5
			}
		},
		{
			"doubleSided":true,
			"name":"Bucket",
			"pbrMetallicRoughness":{
				"baseColorTexture":{
					"index":3
				},
				"metallicFactor":0,
				"roughnessFactor":0.5
			}
		},
		{
			"doubleSided":true,
			"name":"Water",
			"pbrMetallicRoughness":{
				"baseColorTexture":{
					"index":4
				},
				"metallicFactor":0,
				"roughnessFactor":0.5
			}
		}
	],
	"meshes":[
		{
			"name":"Circle",
			"primitives":[
				{
					"attributes":{
						"POSITION":0,
						"NORMAL":1,
						"TEXCOORD_0":2
					},
					"indices":3,
					"material":0
				},
				{
					"attributes":{
						"POSITION":4,
						"NORMAL":5,
						"TEXCOORD_0":6
					},
					"indices":7,
					"material":1
				},
				{
					"attributes":{
						"POSITION":8,
						"NORMAL":9,
						"TEXCOORD_0":10
					},
					"indices":11,
					"material":2
				},
				{
					"attributes":{
						"POSITION":12,
						"NORMAL":13,
						"TEXCOORD_0":14
					},
					"indices":15,
					"material":3
				}
			]
		},
		{
			"name":"Circle.006",
			"primitives":[
				{
					"attributes":{
						"POSITION":16,
						"NORMAL":17,
						"TEXCOORD_0":18,
						"JOINTS_0":19,
						"WEIGHTS_0":20
					},
					"indices":21,
					"material":4
				}
			]
		}
	],
	"textures":[
		{
			"sampler":0,
			"source":0
		},
		{
			"sampler":0,
			"source":1
		},
		{
			"sampler":0,
			"source":2
		},
		{
			"sampler":0,
			"source":3
		},
		{
			"sampler":0,
			"source":4
		}
	],
	"images":[
		{
			"mimeType":"image/jpeg",
			"name":"bricks",
			"uri":"bricks.jpg"
		},
		{
			"mimeType":"image/jpeg",
			"name":"wood",
			"uri":"wood.jpg"
		},
		{
			"mimeType":"image/jpeg",
			"name":"rope",
			"uri":"rope.jpg"
		},
		{
			"mimeType":"image/jpeg",
			"name":"bucket",
			"uri":"bucket.jpg"
		},
		{
			"mimeType":"image/jpeg",
			"name":"watertexture",
			"uri":"watertexture.jpg"
		}
	],
	"skins":[
		{
			"inverseBindMatrices":22,
			"joints":[
				1,
				2,
				3,
				4,
				5,
				6,
				7,
				8,
				9,
				10,
				11,
				12,
				13,
				14,
				15,
				16,
				17,
				18
			],
			"name":"Armature"
		}
	],
	"accessors":[
		{
			"bufferView":0,
			"componentType":5126,
			"count":432,
			"max":[
				2.2842721939086914,
				6.600535869598389,
				2.2842721939086914
			],
			"min":[
				-2.2842721939086914,
				0,
				-2.2842721939086914
			],
			"type":"VEC3"
		},
		{
			"bufferView":1,
			"componentType":5126,
			"count":432,
			"type":"VEC3"
		},
		{
			"bufferView":2,
			"componentType":5126,
			"count":432,
			"type":"VEC2"
		},
		{
			"bufferView":3,
			"componentType":5123,
			"count":810,
			"type":"SCALAR"
		},
		{
			"bufferView":4,
			"componentType":5126,
			"count":128,
			"max":[
				1.8677431344985962,
				4.731357574462891,
				0.1270705759525299
			],
			"min":[
				-1.8677431344985962,
				2.336472749710083,
				-0.12707050144672394
			],
			"type":"VEC3"
		},
		{
			"bufferView":5,
			"componentType":5126,
			"count":128,
			"type":"VEC3"
		},
		{
			"bufferView":6,
			"componentType":5126,
			"count":128,
			"type":"VEC2"
		},
		{
			"bufferView":7,
			"componentType":5123,
			"count":192,
			"type":"SCALAR"
		},
		{
			"bufferView":8,
			"componentType":5126,
			"count":176,
			"max":[
				0.4215691089630127,
				4.172578811645508,
				0.15189804136753082
			],
			"min":[
				-0.4215691089630127,
				3.054591417312622,
				-0.15189829468727112
			],
			"type":"VEC3"
		},
		{
			"bufferView":9,
			"componentType":5126,
			"count":176,
			"type":"VEC3"
		},
		{
			"bufferView":10,
			"componentType":5126,
			"count":176,
			"type":"VEC2"
		},
		{
			"bufferView":11,
			"componentType":5123,
			"count":288,
			"type":"SCALAR"
		},
		{
			"bufferView":12,
			"componentType":5126,
			"count":100,
			"max":[
				0.1326194405555725,
				2.650742292404175,
				0.3934462070465088
			],
			"min":[
				-0.6542728543281555,
				2.0682642459869385,
				-0.39344608783721924
			],
			"type":"VEC3"
		},
		{
			"bufferView":13,
			"componentType":5126,
			"count":100,
			"type":"VEC3"
		},
		{
			"bufferView":14,
			"componentType":5126,
			"count":100,
			"type":"VEC2"
		},
		{
			"bufferView":15,
			"componentType":5123,
			"count":180,
			"type":"SCALAR"
		},
		{
			"bufferView":16,
			"componentType":5126,
			"count":88,
			"max":[
				1.627833604812622,
				1.8311476707458496,
				1.627833604812622
			],
			"min":[
				-1.627833604812622,
				1.8300788402557373,
				-1.627833604812622
			],
			"type":"VEC3"
		},
		{
			"bufferView":17,
			"componentType":5126,
			"count":88,
			"type":"VEC3"
		},
		{
			"bufferView":18,
			"componentType":5126,
			"count":88,
			"type":"VEC2"
		},
		{
			"bufferView":19,
			"componentType":5121,
			"count":88,
			"type":"VEC4"
		},
		{
			"bufferView":20,
			"componentType":5126,
			"count":88,
			"type":"VEC4"
		},
		{
			"bufferView":21,
			"componentType":5123,
			"count":120,
			"type":"SCALAR"
		},
		{
			"bufferView":22,
			"componentType":5126,
			"count":18,
			"type":"MAT4"
		}
	],
	"bufferViews":[
		{
			"buffer":0,
			"byteLength":5184,
			"byteOffset":0,
			"target":34962
		},
		{
			"buffer":0,
			"byteLength":5184,
			"byteOffset":5184,
			"target":34962
		},
		{
			"buffer":0,
			"byteLength":3456,
			"byteOffset":10368,
			"target":34962
		},
		{
			"buffer":0,
			"byteLength":1620,
			"byteOffset":13824,
			"target":34963
		},
		{
			"buffer":0,
			"byteLength":1536,
			"byteOffset":15444,
			"target":34962
		},
		{
			"buffer":0,
			"byteLength":1536,
			"byteOffset":16980,
			"target":34962
		},
		{
			"buffer":0,
			"byteLength":1024,
			"byteOffset":18516,
			"target":34962
		},
		{
			"buffer":0,
			"byteLength":384,
			"byteOffset":19540,
			"target":34963
		},
		{
			"buffer":0,
			"byteLength":2112,
			"byteOffset":19924,
			"target":34962
		},
		{
			"buffer":0,
			"byteLength":2112,
			"byteOffset":22036,
			"target":34962
		},
		{
			"buffer":0,
			"byteLength":1408,
			"byteOffset":24148,
			"target":34962
		},
		{
			"buffer":0,
			"byteLength":576,
			"byteOffset":25556,
			"target":34963
		},
		{
			"buffer":0,
			"byteLength":1200,
			"byteOffset":26132,
			"target":34962
		},
		{
			"buffer":0,
			"byteLength":1200,
			"byteOffset":27332,
			"target":34962
		},
		{
			"buffer":0,
			"byteLength":800,
			"byteOffset":28532,
			"target":34962
		},
		{
			"buffer":0,
			"byteLength":360,
			"byteOffset":29332,
			"target":34963
		},
		{
			"buffer":0,
			"byteLength":1056,
			"byteOffset":29692,
			"target":34962
		},
		{
			"buffer":0,
			"byteLength":1056,
			"byteOffset":30748,
			"target":34962
		},
		{
			"buffer":0,
			"byteLength":704,
			"byteOffset":31804,
			"target":34962
		},
		{
			"buffer":0,
			"byteLength":352,
			"byteOffset":32508,
			"target":34962
		},
		{
			"buffer":0,
			"byteLength":1408,
			"byteOffset":32860,
			"target":34962
		},
		{
			"buffer":0,
			"byteLength":240,
			"byteOffset":34268,
			"target":34963
		},
		{
			"buffer":0,
			"byteLength":1152,
			"byteOffset":34508
		}
	],
	"samplers":[
		{
			"magFilter":9729,
			"minFilter":9987
		}
	],
	"buffers":[
		{
			"byteLength":35660,
			"uri":"well.bin"
		}
	]
}
