{
	"asset":{
		"generator":"Khronos glTF Blender I/O v5.1.19",
		"version":"2.0"
	},
	"scene":0,
	"scenes":[
		{
			"name":"Scene",
			"nodes":[
				11
			]
		}
	],
	"nodes":[
		{
			"name":"1",
			"translation":[
				0,
				0.9468011856079102,
				0
			]
		},
		{
			"children":[
				0
			],
			"name":"2",
			"translation":[
				0,
				0.9898377656936646,
				0
			]
		},
		{
			"children":[
				1
			],
			"name":"3",
			"translation":[
				0,
				0.9295767545700073,
				0
			]
		},
		{
			"children":[
				2
			],
			"name":"4"
		},
		{
			"name":"C_Mid",
			"rotation":[
				-0.7071067690849304,
				0,
				0,
				0.7071067690849304
			],
			"translation":[
				0,
				2.866215705871582,
				0
			]
		},
		{
			"name":"C_Bot",
			"rotation":[
				-0.7071067690849304,
				0,
				0,
				0.7071067690849304
			],
			"translation":[
				0,
				1.9194145202636719,
				0
			]
		},
		{
			"name":"C_Top",
			"rotation":[
				-0.7071067690849304,
				0,
				0,
				0.7071067690849304
			],
			"translation":[
				0,
				4.047760963439941,
				0
			]
		},
		{
			"name":"IK_Top",
			"rotation":[
				0.7071067690849304,
				-1.376787679419067e-07,
				-1.376787679419067e-07,
				0.7071067690849304
			],
			"translation":[
				0,
				2.866215705871582,
				0.6152178049087524
			]
		},
		{
			"name":"IK_Bottom",
			"rotation":[
				0.7071067690849304,
				-2.2197245641564223e-07,
				-2.2197245641564223e-07,
				0.7071067690849304
			],
			"translation":[
				0,
				0.9295767545700073,
				0.6390296816825867
			]
		},
		{
			"name":"IK_Mid",
			"rotation":[
				0.7071067690849304,
				-2.2197245641564223e-07,
				-2.2197245641564223e-07,
				0.7071067690849304
			],
			"translation":[
				0,
				1.9194145202636719,
				0.6390296816825867
			]
		},
		{
			"mesh":0,
			"name":"Sphere",
			"skin":0
		},
		{
			"children":[
				10,
				3,
				4,
				5,
				6,
				7,
				8,
				9
			],
			"name":"Armature"
		}
	],
	"materials":[
		{
			"doubleSided":true,
			"name":"Spiney",
			"pbrMetallicRoughness":{
				"baseColorTexture":{
					"index":0
				},
				"metallicFactor":0
			}
		}
	],
	"meshes":[
		{
			"name":"Sphere",
			"primitives":[
				{
					"attributes":{
						"POSITION":0,
						"NORMAL":1,
						"TEXCOORD_0":2,
						"JOINTS_0":3,
						"WEIGHTS_0":4
					},
					"indices":5,
					"material":0
				}
			]
		}
	],
	"textures":[
		{
			"sampler":0,
			"source":0
		}
	],
	"images":[
		{
			"mimeType":"image/png",
			"name":"spikytextureseditted",
			"uri":"spikytextureseditted.png"
		}
	],
	"skins":[
		{
			"inverseBindMatrices":6,
			"joints":[
				3,
				2,
				1,
				0,
				4,
				5,
				6,
				7,
				8,
				9
			],
			"name":"Armature"
		}
	],
	"accessors":[
		{
			"bufferView":0,
			"componentType":5126,
			"count":572,
			"max":[
				0.8349877595901489,
				4.431491851806641,
				0.7352408170700073
			],
			"min":[
				-0.9475063681602478,
				-0.048860371112823486,
				-0.7207709550857544
			],
			"type":"VEC3"
		},
		{
			"bufferView":1,
			"componentType":5126,
			"count":572,
			"type":"VEC3"
		},
		{
			"bufferView":2,
			"componentType":5126,
			"count":572,
			"type":"VEC2"
		},
		{
			"bufferView":3,
			"componentType":5121,
			"count":572,
			"type":"VEC4"
		},
		{
			"bufferView":4,
			"componentType":5126,
			"count":572,
			"type":"VEC4"
		},
		{
			"bufferView":5,
			"componentType":5123,
			"count":672,
			"type":"SCALAR"
		},
		{
			"bufferView":6,
			"componentType":5126,
			"count":10,
			"type":"MAT4"
		}
	],
	"bufferViews":[
		{
			"buffer":0,
			"byteLength":6864,
			"byteOffset":0,
			"target":34962
		},
		{
			"buffer":0,
			"byteLength":6864,
			"byteOffset":6864,
			"target":34962
		},
		{
			"buffer":0,
			"byteLength":4576,
			"byteOffset":13728,
			"target":34962
		},
		{
			"buffer":0,
			"byteLength":2288,
			"byteOffset":18304,
			"target":34962
		},
		{
			"buffer":0,
			"byteLength":9152,
			"byteOffset":20592,
			"target":34962
		},
		{
			"buffer":0,
			"byteLength":1344,
			"byteOffset":29744,
			"target":34963
		},
		{
			"buffer":0,
			"byteLength":640,
			"byteOffset":31088
		}
	],
	"samplers":[
		{
			"magFilter":9729,
			"minFilter":9987
		}
	],
	"buffers":[
		{
			"byteLength":31728,
			"uri":"spiky.bin"
		}
	]
}
