{
	"asset":{
		"generator":"Khronos glTF Blender I/O v5.1.19",
		"version":"2.0"
	},
	"scene":0,
	"scenes":[
		{
			"name":"Scene",
			"nodes":[
				34
			]
		}
	],
	"nodes":[
		{
			"name":"Bot_Hair_L",
			"rotation":[
				0.08182692527770996,
				0.044598538428545,
				0.009374142624437809,
				0.9956040978431702
			],
			"scale":[
				1.0000001192092896,
				1,
				0.9999999403953552
			],
			"translation":[
				-2.0489096641540527e-08,
				0.4667973816394806,
				4.842877388000488e-08
			]
		},
		{
			"children":[
				0
			],
			"name":"Mid_Hair_L",
			"rotation":[
				0.04798236861824989,
				-0.025758199393749237,
				-0.02104909159243107,
				0.9982941746711731
			],
			"scale":[
				0.9999999403953552,
				1,
				1
			],
			"translation":[
				-4.7161819338725763e-08,
				0.5774060487747192,
				3.3527612686157227e-08
			]
		},
		{
			"children":[
				1
			],
			"name":"Top_Hair_L",
			"rotation":[
				-0.03568710759282112,
				-0.18097224831581116,
				0.9642706513404846,
				0.190151646733284
			],
			"scale":[
				1.0000001192092896,
				1,
				1.0000001192092896
			],
			"translation":[
				-2.60770320892334e-08,
				0.37915554642677307,
				-1.1934897514720433e-15
			]
		},
		{
			"name":"Bot_Hair_R",
			"rotation":[
				-0.09854017198085785,
				-0.05340421944856644,
				0.0083773797377944,
				0.9936637878417969
			],
			"scale":[
				0.9999998807907104,
				0.9999998211860657,
				0.9999999403953552
			],
			"translation":[
				-2.7939677238464355e-08,
				0.4692787528038025,
				7.450580596923828e-08
			]
		},
		{
			"children":[
				3
			],
			"name":"Mid_Hair_R",
			"rotation":[
				-0.03811399266123772,
				0.027903016656637192,
				-0.0213043000549078,
				0.9986565113067627
			],
			"scale":[
				1,
				1.0000001192092896,
				1
			],
			"translation":[
				-6.186107270877983e-08,
				0.5771952867507935,
				1.4901161193847656e-08
			]
		},
		{
			"children":[
				4
			],
			"name":"Top_Hair_R",
			"rotation":[
				0.03523191064596176,
				0.18080925941467285,
				0.9647417664527893,
				0.1879894733428955
			],
			"scale":[
				1.0000003576278687,
				1.000000238418579,
				1.0000004768371582
			],
			"translation":[
				-2.60770320892334e-08,
				0.37915554642677307,
				-1.1934897514720433e-15
			]
		},
		{
			"children":[
				2,
				5
			],
			"name":"Head",
			"rotation":[
				-3.7531478369601246e-08,
				4.438302170228781e-09,
				0.1216304674744606,
				0.992575466632843
			],
			"scale":[
				1,
				0.9999999403953552,
				1
			],
			"translation":[
				-7.0383667782891735e-09,
				0.19696569442749023,
				1.889837231475698e-14
			]
		},
		{
			"children":[
				6
			],
			"name":"Neck",
			"rotation":[
				7.679177826958039e-08,
				3.986061969385446e-08,
				-0.2926374077796936,
				0.9562234878540039
			],
			"scale":[
				1.0000001192092896,
				1,
				1
			],
			"translation":[
				0,
				0.45866987109184265,
				-7.382983113757291e-15
			]
		},
		{
			"name":"Hand_L",
			"rotation":[
				-0.0067839003168046474,
				0.0009402494761161506,
				0.054971273988485336,
				0.9984644651412964
			],
			"scale":[
				0.9999998807907104,
				0.9999999403953552,
				1
			],
			"translation":[
				5.122274160385132e-09,
				0.5817744731903076,
				-2.9402883683360415e-07
			]
		},
		{
			"children":[
				8
			],
			"name":"Lower_Arm_L",
			"rotation":[
				0.03063737042248249,
				-0.0020245753694325686,
				0.011872767470777035,
				0.9994580149650574
			],
			"scale":[
				1,
				1,
				1.0000001192092896
			],
			"translation":[
				4.423782229423523e-09,
				0.5314391255378723,
				-9.152785196420155e-09
			]
		},
		{
			"children":[
				9
			],
			"name":"Upper_Arm_L",
			"rotation":[
				0.1309402883052826,
				-0.0010478828335180879,
				0.045213546603918076,
				0.9903581738471985
			],
			"scale":[
				0.9999999403953552,
				0.9999999403953552,
				0.9999998807907104
			],
			"translation":[
				2.7939677238464355e-09,
				0.30510446429252625,
				-7.201288099167868e-08
			]
		},
		{
			"children":[
				10
			],
			"name":"Shoulder_L",
			"rotation":[
				-0.7972800135612488,
				0.0891093760728836,
				-0.08821006864309311,
				0.5904431939125061
			],
			"scale":[
				1.0000001192092896,
				1.0000001192092896,
				1.0000001192092896
			],
			"translation":[
				0,
				0.45866987109184265,
				-7.382983113757291e-15
			]
		},
		{
			"name":"Hand_R",
			"rotation":[
				0.030968746170401573,
				-0.002595273545011878,
				0.01277373731136322,
				0.9994353652000427
			],
			"translation":[
				-4.656612873077393e-10,
				0.5778638124465942,
				-1.3280043731356272e-10
			]
		},
		{
			"children":[
				12
			],
			"name":"Lower_Arm_R",
			"rotation":[
				-0.020112639293074608,
				0.0011933904606848955,
				0.011549261398613453,
				0.9997302889823914
			],
			"scale":[
				0.9999999403953552,
				1,
				0.9999999403953552
			],
			"translation":[
				2.9103830456733704e-09,
				0.5465613603591919,
				4.0129449985215615e-08
			]
		},
		{
			"children":[
				13
			],
			"name":"Upper_Arm_R",
			"rotation":[
				-0.15834395587444305,
				0.0031779848504811525,
				0.02689962275326252,
				0.9870124459266663
			],
			"translation":[
				2.444721758365631e-09,
				0.28543439507484436,
				2.0015068002976477e-07
			]
		},
		{
			"children":[
				14
			],
			"name":"Shoulder_R",
			"rotation":[
				0.8077282309532166,
				-0.10270798206329346,
				-0.07705438137054443,
				0.5754032135009766
			],
			"scale":[
				1.0000001192092896,
				1,
				1
			],
			"translation":[
				0,
				0.45866987109184265,
				-7.382983113757291e-15
			]
		},
		{
			"children":[
				7,
				11,
				15
			],
			"name":"Upper Torso",
			"rotation":[
				-2.5354861321602584e-08,
				5.388024248986767e-08,
				0.15326254069805145,
				0.9881855249404907
			],
			"translation":[
				-3.725290298461914e-09,
				0.6340650320053101,
				-7.216449660063518e-16
			]
		},
		{
			"children":[
				16
			],
			"name":"Lower Torso",
			"rotation":[
				1.921405257121478e-09,
				5.679907033595555e-08,
				-0.023981841281056404,
				0.9997124075889587
			],
			"translation":[
				0.022802507504820824,
				0,
				0
			]
		},
		{
			"name":"Lower_Leg_R",
			"rotation":[
				-0.010211573913693428,
				-0.0014481752878054976,
				-0.1084844321012497,
				0.9940446615219116
			],
			"scale":[
				1,
				0.9999999403953552,
				1
			],
			"translation":[
				-2.3865140974521637e-09,
				0.6261638402938843,
				-6.63244463794399e-08
			]
		},
		{
			"children":[
				18
			],
			"name":"Upper_Leg_R",
			"rotation":[
				-0.6277680397033691,
				-0.06356877833604813,
				0.06785306334495544,
				0.7728275060653687
			],
			"scale":[
				0.9999999403953552,
				1,
				0.9999999403953552
			],
			"translation":[
				9.313225746154785e-10,
				0.24378053843975067,
				-9.435317593897707e-08
			]
		},
		{
			"children":[
				19
			],
			"name":"Waist_R",
			"rotation":[
				-0.0660599023103714,
				0.6983556151390076,
				0.7095286250114441,
				0.06711690127849579
			],
			"scale":[
				1.000001072883606,
				1,
				1
			]
		},
		{
			"name":"Foot_R",
			"rotation":[
				-0.012501394376158714,
				-0.007940858602523804,
				0.9985577464103699,
				0.05160502716898918
			],
			"scale":[
				1.0000287294387817,
				1.0000001192092896,
				1.0000007152557373
			],
			"translation":[
				8.847564458847046e-09,
				-8.81888837511724e-08,
				-2.3224856704473495e-08
			]
		},
		{
			"children":[
				21
			],
			"name":"Heel_R",
			"rotation":[
				-0.058760613203048706,
				0.05791516974568367,
				0.709783673286438,
				0.6995714902877808
			],
			"scale":[
				0.9999998211860657,
				0.9999997019767761,
				0.9999998807907104
			],
			"translation":[
				-0.2508275806903839,
				-1.4441592693328857,
				0.49785494804382324
			]
		},
		{
			"name":"Lower_Leg_L",
			"rotation":[
				-0.01715400069952011,
				0.002270754426717758,
				0.10778158158063889,
				0.9940240383148193
			],
			"scale":[
				0.9999999403953552,
				1,
				0.9999999403953552
			],
			"translation":[
				-6.752088665962219e-09,
				0.61729896068573,
				-2.1454980014823377e-09
			]
		},
		{
			"children":[
				23
			],
			"name":"Upper_Leg_L",
			"rotation":[
				-0.6196436882019043,
				0.061850033700466156,
				-0.0671701580286026,
				0.7795540690422058
			],
			"scale":[
				1,
				1,
				0.9999998807907104
			],
			"translation":[
				-9.313225746154785e-10,
				0.24774743616580963,
				-2.4906050555273396e-08
			]
		},
		{
			"children":[
				24
			],
			"name":"Waist_L",
			"rotation":[
				-0.7203601002693176,
				0.06703117489814758,
				0.0639626532793045,
				0.6873841881752014
			],
			"scale":[
				1,
				0.9999999403953552,
				0.9999999403953552
			]
		},
		{
			"name":"Foot_L",
			"rotation":[
				-0.010750364512205124,
				0.00682875607162714,
				-0.9985781311988831,
				0.05176392197608948
			],
			"scale":[
				1.0000289678573608,
				1,
				1.0000005960464478
			],
			"translation":[
				0,
				-1.043766033603788e-07,
				1.5599653124809265e-08
			]
		},
		{
			"children":[
				26
			],
			"name":"Heel_L",
			"rotation":[
				-0.7104192972183228,
				0.7001979947090149,
				0.05049864202737808,
				0.04977208003401756
			],
			"scale":[
				0.9999998211860657,
				0.9999997019767761,
				0.9999998807907104
			],
			"translation":[
				-0.2508275806903839,
				-1.451760172843933,
				-0.4750524163246155
			]
		},
		{
			"name":"Knee_R",
			"rotation":[
				-0.06628455966711044,
				-0.06472513824701309,
				-0.7123957276344299,
				0.695635974407196
			],
			"scale":[
				1,
				1,
				1.0000001192092896
			],
			"translation":[
				0.2909596860408783,
				-0.6118674874305725,
				0.35723942518234253
			]
		},
		{
			"name":"Knee_L",
			"rotation":[
				-0.7127050757408142,
				-0.6959379315376282,
				-0.06287174671888351,
				0.06139262393116951
			],
			"scale":[
				1,
				0.9999999403953552,
				1
			],
			"translation":[
				0.2909596860408783,
				-0.6118674874305725,
				-0.35343900322914124
			]
		},
		{
			"name":"face_select",
			"rotation":[
				-0.5,
				-0.5,
				-0.5,
				0.5
			],
			"translation":[
				0.036528781056404114,
				1.3681752681732178,
				-0.7196802496910095
			]
		},
		{
			"name":"Sword",
			"rotation":[
				0.7071068286895752,
				0,
				-0.7071067094802856,
				0
			],
			"translation":[
				0,
				-1.7820477485656738,
				0
			]
		},
		{
			"mesh":0,
			"name":"Cube",
			"skin":0
		},
		{
			"mesh":1,
			"name":"Cube.001",
			"skin":0
		},
		{
			"children":[
				32,
				33,
				17,
				20,
				22,
				25,
				27,
				28,
				29,
				30,
				31
			],
			"name":"Armature",
			"translation":[
				0,
				1.5213840007781982,
				0
			]
		}
	],
	"animations":[
		{
			"channels":[
				{
					"sampler":0,
					"target":{
						"node":17,
						"path":"translation"
					}
				},
				{
					"sampler":1,
					"target":{
						"node":17,
						"path":"rotation"
					}
				},
				{
					"sampler":2,
					"target":{
						"node":17,
						"path":"scale"
					}
				},
				{
					"sampler":3,
					"target":{
						"node":16,
						"path":"translation"
					}
				},
				{
					"sampler":4,
					"target":{
						"node":16,
						"path":"rotation"
					}
				},
				{
					"sampler":5,
					"target":{
						"node":16,
						"path":"scale"
					}
				},
				{
					"sampler":6,
					"target":{
						"node":7,
						"path":"translation"
					}
				},
				{
					"sampler":7,
					"target":{
						"node":7,
						"path":"rotation"
					}
				},
				{
					"sampler":8,
					"target":{
						"node":7,
						"path":"scale"
					}
				},
				{
					"sampler":9,
					"target":{
						"node":6,
						"path":"translation"
					}
				},
				{
					"sampler":10,
					"target":{
						"node":6,
						"path":"rotation"
					}
				},
				{
					"sampler":11,
					"target":{
						"node":6,
						"path":"scale"
					}
				},
				{
					"sampler":12,
					"target":{
						"node":2,
						"path":"translation"
					}
				},
				{
					"sampler":13,
					"target":{
						"node":2,
						"path":"rotation"
					}
				},
				{
					"sampler":14,
					"target":{
						"node":2,
						"path":"scale"
					}
				},
				{
					"sampler":15,
					"target":{
						"node":1,
						"path":"translation"
					}
				},
				{
					"sampler":16,
					"target":{
						"node":1,
						"path":"rotation"
					}
				},
				{
					"sampler":17,
					"target":{
						"node":1,
						"path":"scale"
					}
				},
				{
					"sampler":18,
					"target":{
						"node":0,
						"path":"translation"
					}
				},
				{
					"sampler":19,
					"target":{
						"node":0,
						"path":"rotation"
					}
				},
				{
					"sampler":20,
					"target":{
						"node":0,
						"path":"scale"
					}
				},
				{
					"sampler":21,
					"target":{
						"node":5,
						"path":"translation"
					}
				},
				{
					"sampler":22,
					"target":{
						"node":5,
						"path":"rotation"
					}
				},
				{
					"sampler":23,
					"target":{
						"node":5,
						"path":"scale"
					}
				},
				{
					"sampler":24,
					"target":{
						"node":4,
						"path":"translation"
					}
				},
				{
					"sampler":25,
					"target":{
						"node":4,
						"path":"rotation"
					}
				},
				{
					"sampler":26,
					"target":{
						"node":4,
						"path":"scale"
					}
				},
				{
					"sampler":27,
					"target":{
						"node":3,
						"path":"translation"
					}
				},
				{
					"sampler":28,
					"target":{
						"node":3,
						"path":"rotation"
					}
				},
				{
					"sampler":29,
					"target":{
						"node":3,
						"path":"scale"
					}
				},
				{
					"sampler":30,
					"target":{
						"node":11,
						"path":"translation"
					}
				},
				{
					"sampler":31,
					"target":{
						"node":11,
						"path":"rotation"
					}
				},
				{
					"sampler":32,
					"target":{
						"node":11,
						"path":"scale"
					}
				},
				{
					"sampler":33,
					"target":{
						"node":10,
						"path":"translation"
					}
				},
				{
					"sampler":34,
					"target":{
						"node":10,
						"path":"rotation"
					}
				},
				{
					"sampler":35,
					"target":{
						"node":10,
						"path":"scale"
					}
				},
				{
					"sampler":36,
					"target":{
						"node":9,
						"path":"translation"
					}
				},
				{
					"sampler":37,
					"target":{
						"node":9,
						"path":"rotation"
					}
				},
				{
					"sampler":38,
					"target":{
						"node":9,
						"path":"scale"
					}
				},
				{
					"sampler":39,
					"target":{
						"node":8,
						"path":"translation"
					}
				},
				{
					"sampler":40,
					"target":{
						"node":8,
						"path":"rotation"
					}
				},
				{
					"sampler":41,
					"target":{
						"node":8,
						"path":"scale"
					}
				},
				{
					"sampler":42,
					"target":{
						"node":15,
						"path":"translation"
					}
				},
				{
					"sampler":43,
					"target":{
						"node":15,
						"path":"rotation"
					}
				},
				{
					"sampler":44,
					"target":{
						"node":15,
						"path":"scale"
					}
				},
				{
					"sampler":45,
					"target":{
						"node":14,
						"path":"translation"
					}
				},
				{
					"sampler":46,
					"target":{
						"node":14,
						"path":"rotation"
					}
				},
				{
					"sampler":47,
					"target":{
						"node":14,
						"path":"scale"
					}
				},
				{
					"sampler":48,
					"target":{
						"node":13,
						"path":"translation"
					}
				},
				{
					"sampler":49,
					"target":{
						"node":13,
						"path":"rotation"
					}
				},
				{
					"sampler":50,
					"target":{
						"node":13,
						"path":"scale"
					}
				},
				{
					"sampler":51,
					"target":{
						"node":12,
						"path":"translation"
					}
				},
				{
					"sampler":52,
					"target":{
						"node":12,
						"path":"rotation"
					}
				},
				{
					"sampler":53,
					"target":{
						"node":12,
						"path":"scale"
					}
				},
				{
					"sampler":54,
					"target":{
						"node":20,
						"path":"translation"
					}
				},
				{
					"sampler":55,
					"target":{
						"node":20,
						"path":"rotation"
					}
				},
				{
					"sampler":56,
					"target":{
						"node":20,
						"path":"scale"
					}
				},
				{
					"sampler":57,
					"target":{
						"node":19,
						"path":"translation"
					}
				},
				{
					"sampler":58,
					"target":{
						"node":19,
						"path":"rotation"
					}
				},
				{
					"sampler":59,
					"target":{
						"node":19,
						"path":"scale"
					}
				},
				{
					"sampler":60,
					"target":{
						"node":18,
						"path":"translation"
					}
				},
				{
					"sampler":61,
					"target":{
						"node":18,
						"path":"rotation"
					}
				},
				{
					"sampler":62,
					"target":{
						"node":18,
						"path":"scale"
					}
				},
				{
					"sampler":63,
					"target":{
						"node":22,
						"path":"translation"
					}
				},
				{
					"sampler":64,
					"target":{
						"node":22,
						"path":"rotation"
					}
				},
				{
					"sampler":65,
					"target":{
						"node":22,
						"path":"scale"
					}
				},
				{
					"sampler":66,
					"target":{
						"node":21,
						"path":"translation"
					}
				},
				{
					"sampler":67,
					"target":{
						"node":21,
						"path":"rotation"
					}
				},
				{
					"sampler":68,
					"target":{
						"node":21,
						"path":"scale"
					}
				},
				{
					"sampler":69,
					"target":{
						"node":25,
						"path":"translation"
					}
				},
				{
					"sampler":70,
					"target":{
						"node":25,
						"path":"rotation"
					}
				},
				{
					"sampler":71,
					"target":{
						"node":25,
						"path":"scale"
					}
				},
				{
					"sampler":72,
					"target":{
						"node":24,
						"path":"translation"
					}
				},
				{
					"sampler":73,
					"target":{
						"node":24,
						"path":"rotation"
					}
				},
				{
					"sampler":74,
					"target":{
						"node":24,
						"path":"scale"
					}
				},
				{
					"sampler":75,
					"target":{
						"node":23,
						"path":"translation"
					}
				},
				{
					"sampler":76,
					"target":{
						"node":23,
						"path":"rotation"
					}
				},
				{
					"sampler":77,
					"target":{
						"node":23,
						"path":"scale"
					}
				},
				{
					"sampler":78,
					"target":{
						"node":27,
						"path":"translation"
					}
				},
				{
					"sampler":79,
					"target":{
						"node":27,
						"path":"rotation"
					}
				},
				{
					"sampler":80,
					"target":{
						"node":27,
						"path":"scale"
					}
				},
				{
					"sampler":81,
					"target":{
						"node":26,
						"path":"translation"
					}
				},
				{
					"sampler":82,
					"target":{
						"node":26,
						"path":"rotation"
					}
				},
				{
					"sampler":83,
					"target":{
						"node":26,
						"path":"scale"
					}
				},
				{
					"sampler":84,
					"target":{
						"node":28,
						"path":"translation"
					}
				},
				{
					"sampler":85,
					"target":{
						"node":28,
						"path":"rotation"
					}
				},
				{
					"sampler":86,
					"target":{
						"node":28,
						"path":"scale"
					}
				},
				{
					"sampler":87,
					"target":{
						"node":29,
						"path":"translation"
					}
				},
				{
					"sampler":88,
					"target":{
						"node":29,
						"path":"rotation"
					}
				},
				{
					"sampler":89,
					"target":{
						"node":29,
						"path":"scale"
					}
				},
				{
					"sampler":90,
					"target":{
						"node":30,
						"path":"translation"
					}
				},
				{
					"sampler":91,
					"target":{
						"node":30,
						"path":"rotation"
					}
				},
				{
					"sampler":92,
					"target":{
						"node":30,
						"path":"scale"
					}
				},
				{
					"sampler":93,
					"target":{
						"node":31,
						"path":"translation"
					}
				},
				{
					"sampler":94,
					"target":{
						"node":31,
						"path":"rotation"
					}
				},
				{
					"sampler":95,
					"target":{
						"node":31,
						"path":"scale"
					}
				}
			],
			"name":"Run",
			"samplers":[
				{
					"input":19,
					"interpolation":"LINEAR",
					"output":20
				},
				{
					"input":19,
					"interpolation":"LINEAR",
					"output":21
				},
				{
					"input":22,
					"interpolation":"STEP",
					"output":23
				},
				{
					"input":22,
					"interpolation":"STEP",
					"output":24
				},
				{
					"input":19,
					"interpolation":"LINEAR",
					"output":25
				},
				{
					"input":22,
					"interpolation":"STEP",
					"output":26
				},
				{
					"input":22,
					"interpolation":"LINEAR",
					"output":27
				},
				{
					"input":22,
					"interpolation":"LINEAR",
					"output":28
				},
				{
					"input":22,
					"interpolation":"STEP",
					"output":29
				},
				{
					"input":22,
					"interpolation":"LINEAR",
					"output":30
				},
				{
					"input":19,
					"interpolation":"LINEAR",
					"output":31
				},
				{
					"input":22,
					"interpolation":"STEP",
					"output":32
				},
				{
					"input":22,
					"interpolation":"LINEAR",
					"output":33
				},
				{
					"input":22,
					"interpolation":"LINEAR",
					"output":34
				},
				{
					"input":22,
					"interpolation":"STEP",
					"output":35
				},
				{
					"input":22,
					"interpolation":"LINEAR",
					"output":36
				},
				{
					"input":22,
					"interpolation":"LINEAR",
					"output":37
				},
				{
					"input":22,
					"interpolation":"STEP",
					"output":38
				},
				{
					"input":22,
					"interpolation":"STEP",
					"output":39
				},
				{
					"input":22,
					"interpolation":"STEP",
					"output":40
				},
				{
					"input":22,
					"interpolation":"STEP",
					"output":41
				},
				{
					"input":22,
					"interpolation":"LINEAR",
					"output":42
				},
				{
					"input":22,
					"interpolation":"LINEAR",
					"output":43
				},
				{
					"input":22,
					"interpolation":"LINEAR",
					"output":44
				},
				{
					"input":22,
					"interpolation":"LINEAR",
					"output":45
				},
				{
					"input":22,
					"interpolation":"LINEAR",
					"output":46
				},
				{
					"input":22,
					"interpolation":"STEP",
					"output":47
				},
				{
					"input":22,
					"interpolation":"STEP",
					"output":48
				},
				{
					"input":22,
					"interpolation":"STEP",
					"output":49
				},
				{
					"input":22,
					"interpolation":"STEP",
					"output":50
				},
				{
					"input":22,
					"interpolation":"LINEAR",
					"output":51
				},
				{
					"input":19,
					"interpolation":"LINEAR",
					"output":52
				},
				{
					"input":22,
					"interpolation":"LINEAR",
					"output":53
				},
				{
					"input":22,
					"interpolation":"LINEAR",
					"output":54
				},
				{
					"input":22,
					"interpolation":"LINEAR",
					"output":55
				},
				{
					"input":22,
					"interpolation":"STEP",
					"output":56
				},
				{
					"input":22,
					"interpolation":"LINEAR",
					"output":57
				},
				{
					"input":19,
					"interpolation":"LINEAR",
					"output":58
				},
				{
					"input":22,
					"interpolation":"LINEAR",
					"output":59
				},
				{
					"input":22,
					"interpolation":"LINEAR",
					"output":60
				},
				{
					"input":22,
					"interpolation":"LINEAR",
					"output":61
				},
				{
					"input":22,
					"interpolation":"STEP",
					"output":62
				},
				{
					"input":22,
					"interpolation":"LINEAR",
					"output":63
				},
				{
					"input":19,
					"interpolation":"LINEAR",
					"output":64
				},
				{
					"input":22,
					"interpolation":"LINEAR",
					"output":65
				},
				{
					"input":22,
					"interpolation":"LINEAR",
					"output":66
				},
				{
					"input":22,
					"interpolation":"LINEAR",
					"output":67
				},
				{
					"input":22,
					"interpolation":"STEP",
					"output":68
				},
				{
					"input":22,
					"interpolation":"LINEAR",
					"output":69
				},
				{
					"input":22,
					"interpolation":"LINEAR",
					"output":70
				},
				{
					"input":22,
					"interpolation":"STEP",
					"output":71
				},
				{
					"input":22,
					"interpolation":"LINEAR",
					"output":72
				},
				{
					"input":22,
					"interpolation":"LINEAR",
					"output":73
				},
				{
					"input":22,
					"interpolation":"STEP",
					"output":74
				},
				{
					"input":19,
					"interpolation":"LINEAR",
					"output":75
				},
				{
					"input":19,
					"interpolation":"LINEAR",
					"output":76
				},
				{
					"input":22,
					"interpolation":"STEP",
					"output":77
				},
				{
					"input":22,
					"interpolation":"STEP",
					"output":78
				},
				{
					"input":19,
					"interpolation":"LINEAR",
					"output":79
				},
				{
					"input":22,
					"interpolation":"STEP",
					"output":80
				},
				{
					"input":22,
					"interpolation":"STEP",
					"output":81
				},
				{
					"input":19,
					"interpolation":"LINEAR",
					"output":82
				},
				{
					"input":22,
					"interpolation":"STEP",
					"output":83
				},
				{
					"input":19,
					"interpolation":"LINEAR",
					"output":84
				},
				{
					"input":19,
					"interpolation":"LINEAR",
					"output":85
				},
				{
					"input":22,
					"interpolation":"STEP",
					"output":86
				},
				{
					"input":19,
					"interpolation":"LINEAR",
					"output":87
				},
				{
					"input":22,
					"interpolation":"STEP",
					"output":88
				},
				{
					"input":22,
					"interpolation":"STEP",
					"output":89
				},
				{
					"input":19,
					"interpolation":"LINEAR",
					"output":90
				},
				{
					"input":19,
					"interpolation":"LINEAR",
					"output":91
				},
				{
					"input":22,
					"interpolation":"STEP",
					"output":92
				},
				{
					"input":22,
					"interpolation":"STEP",
					"output":93
				},
				{
					"input":19,
					"interpolation":"LINEAR",
					"output":94
				},
				{
					"input":22,
					"interpolation":"STEP",
					"output":95
				},
				{
					"input":22,
					"interpolation":"STEP",
					"output":96
				},
				{
					"input":19,
					"interpolation":"LINEAR",
					"output":97
				},
				{
					"input":22,
					"interpolation":"STEP",
					"output":98
				},
				{
					"input":19,
					"interpolation":"LINEAR",
					"output":99
				},
				{
					"input":19,
					"interpolation":"LINEAR",
					"output":100
				},
				{
					"input":22,
					"interpolation":"STEP",
					"output":101
				},
				{
					"input":19,
					"interpolation":"LINEAR",
					"output":102
				},
				{
					"input":22,
					"interpolation":"STEP",
					"output":103
				},
				{
					"input":22,
					"interpolation":"STEP",
					"output":104
				},
				{
					"input":19,
					"interpolation":"LINEAR",
					"output":105
				},
				{
					"input":22,
					"interpolation":"STEP",
					"output":106
				},
				{
					"input":22,
					"interpolation":"STEP",
					"output":26
				},
				{
					"input":19,
					"interpolation":"LINEAR",
					"output":107
				},
				{
					"input":22,
					"interpolation":"STEP",
					"output":108
				},
				{
					"input":22,
					"interpolation":"STEP",
					"output":109
				},
				{
					"input":22,
					"interpolation":"STEP",
					"output":110
				},
				{
					"input":22,
					"interpolation":"STEP",
					"output":111
				},
				{
					"input":22,
					"interpolation":"STEP",
					"output":26
				},
				{
					"input":19,
					"interpolation":"LINEAR",
					"output":112
				},
				{
					"input":19,
					"interpolation":"LINEAR",
					"output":113
				},
				{
					"input":22,
					"interpolation":"STEP",
					"output":26
				}
			]
		},
		{
			"channels":[
				{
					"sampler":0,
					"target":{
						"node":32,
						"path":"translation"
					}
				}
			],
			"name":"CubeAction",
			"samplers":[
				{
					"input":114,
					"interpolation":"LINEAR",
					"output":115
				}
			]
		}
	],
	"materials":[
		{
			"doubleSided":true,
			"name":"Face",
			"pbrMetallicRoughness":{
				"baseColorTexture":{
					"index":0
				},
				"metallicFactor":0
			}
		},
		{
			"doubleSided":true,
			"name":"Textures",
			"pbrMetallicRoughness":{
				"baseColorTexture":{
					"index":1
				},
				"metallicFactor":0,
				"roughnessFactor":0.5
			}
		}
	],
	"meshes":[
		{
			"name":"Cube",
			"primitives":[
				{
					"attributes":{
						"POSITION":0,
						"NORMAL":1,
						"TEXCOORD_0":2,
						"JOINTS_0":3,
						"WEIGHTS_0":4
					},
					"indices":5
				}
			]
		},
		{
			"name":"Cube.003",
			"primitives":[
				{
					"attributes":{
						"POSITION":7,
						"NORMAL":8,
						"TEXCOORD_0":9,
						"JOINTS_0":10,
						"WEIGHTS_0":11
					},
					"indices":12,
					"material":0
				},
				{
					"attributes":{
						"POSITION":13,
						"NORMAL":14,
						"TEXCOORD_0":15,
						"JOINTS_0":16,
						"WEIGHTS_0":17
					},
					"indices":18,
					"material":1
				}
			]
		}
	],
	"textures":[
		{
			"sampler":0,
			"source":0
		},
		{
			"sampler":1,
			"source":1
		}
	],
	"images":[
		{
			"mimeType":"image/png",
			"name":"Face",
			"uri":"Face.png"
		},
		{
			"mimeType":"image/png",
			"name":"MintTextures",
			"uri":"MintTextures.png"
		}
	],
	"skins":[
		{
			"inverseBindMatrices":6,
			"joints":[
				17,
				16,
				7,
				6,
				2,
				1,
				0,
				5,
				4,
				3,
				11,
				10,
				9,
				8,
				15,
				14,
				13,
				12,
				20,
				19,
				18,
				22,
				21,
				25,
				24,
				23,
				27,
				26,
				28,
				29,
				30,
				31
			],
			"name":"Armature"
		}
	],
	"accessors":[
		{
			"bufferView":0,
			"componentType":5126,
			"count":210,
			"max":[
				0.06365515291690826,
				-0.009394645690917969,
				0.391815721988678
			],
			"min":[
				-0.06365515291690826,
				-4.043367385864258,
				-0.3918199837207794
			],
			"type":"VEC3"
		},
		{
			"bufferView":1,
			"componentType":5126,
			"count":210,
			"type":"VEC3"
		},
		{
			"bufferView":2,
			"componentType":5126,
			"count":210,
			"type":"VEC2"
		},
		{
			"bufferView":3,
			"componentType":5121,
			"count":210,
			"type":"VEC4"
		},
		{
			"bufferView":4,
			"componentType":5126,
			"count":210,
			"type":"VEC4"
		},
		{
			"bufferView":5,
			"componentType":5123,
			"count":330,
			"type":"SCALAR"
		},
		{
			"bufferView":6,
			"componentType":5126,
			"count":32,
			"type":"MAT4"
		},
		{
			"bufferView":7,
			"componentType":5126,
			"count":24,
			"max":[
				0.33810439705848694,
				3.411977767944336,
				0.3199400305747986
			],
			"min":[
				0.20977865159511566,
				2.6593518257141113,
				-0.3199400305747986
			],
			"type":"VEC3"
		},
		{
			"bufferView":8,
			"componentType":5126,
			"count":24,
			"type":"VEC3"
		},
		{
			"bufferView":9,
			"componentType":5126,
			"count":24,
			"type":"VEC2"
		},
		{
			"bufferView":10,
			"componentType":5121,
			"count":24,
			"type":"VEC4"
		},
		{
			"bufferView":11,
			"componentType":5126,
			"count":24,
			"type":"VEC4"
		},
		{
			"bufferView":12,
			"componentType":5123,
			"count":36,
			"type":"SCALAR"
		},
		{
			"bufferView":13,
			"componentType":5126,
			"count":2314,
			"max":[
				0.4263836443424225,
				3.50612473487854,
				1.6240285634994507
			],
			"min":[
				-1.1604653596878052,
				0.0006386552704498172,
				-1.6240285634994507
			],
			"type":"VEC3"
		},
		{
			"bufferView":14,
			"componentType":5126,
			"count":2314,
			"type":"VEC3"
		},
		{
			"bufferView":15,
			"componentType":5126,
			"count":2314,
			"type":"VEC2"
		},
		{
			"bufferView":16,
			"componentType":5121,
			"count":2314,
			"type":"VEC4"
		},
		{
			"bufferView":17,
			"componentType":5126,
			"count":2314,
			"type":"VEC4"
		},
		{
			"bufferView":18,
			"componentType":5123,
			"count":3444,
			"type":"SCALAR"
		},
		{
			"bufferView":19,
			"componentType":5126,
			"count":21,
			"max":[
				0.8333333333333334
			],
			"min":[
				0
			],
			"type":"SCALAR"
		},
		{
			"bufferView":20,
			"componentType":5126,
			"count":21,
			"type":"VEC3"
		},
		{
			"bufferView":21,
			"componentType":5126,
			"count":21,
			"type":"VEC4"
		},
		{
			"bufferView":22,
			"componentType":5126,
			"count":2,
			"max":[
				0.8333333333333334
			],
			"min":[
				0
			],
			"type":"SCALAR"
		},
		{
			"bufferView":23,
			"componentType":5126,
			"count":2,
			"type":"VEC3"
		},
		{
			"bufferView":24,
			"componentType":5126,
			"count":2,
			"type":"VEC3"
		},
		{
			"bufferView":25,
			"componentType":5126,
			"count":21,
			"type":"VEC4"
		},
		{
			"bufferView":26,
			"componentType":5126,
			"count":2,
			"type":"VEC3"
		},
		{
			"bufferView":27,
			"componentType":5126,
			"count":2,
			"type":"VEC3"
		},
		{
			"bufferView":28,
			"componentType":5126,
			"count":2,
			"type":"VEC4"
		},
		{
			"bufferView":29,
			"componentType":5126,
			"count":2,
			"type":"VEC3"
		},
		{
			"bufferView":30,
			"componentType":5126,
			"count":2,
			"type":"VEC3"
		},
		{
			"bufferView":31,
			"componentType":5126,
			"count":21,
			"type":"VEC4"
		},
		{
			"bufferView":32,
			"componentType":5126,
			"count":2,
			"type":"VEC3"
		},
		{
			"bufferView":33,
			"componentType":5126,
			"count":2,
			"type":"VEC3"
		},
		{
			"bufferView":34,
			"componentType":5126,
			"count":2,
			"type":"VEC4"
		},
		{
			"bufferView":35,
			"componentType":5126,
			"count":2,
			"type":"VEC3"
		},
		{
			"bufferView":36,
			"componentType":5126,
			"count":2,
			"type":"VEC3"
		},
		{
			"bufferView":37,
			"componentType":5126,
			"count":2,
			"type":"VEC4"
		},
		{
			"bufferView":38,
			"componentType":5126,
			"count":2,
			"type":"VEC3"
		},
		{
			"bufferView":39,
			"componentType":5126,
			"count":2,
			"type":"VEC3"
		},
		{
			"bufferView":40,
			"componentType":5126,
			"count":2,
			"type":"VEC4"
		},
		{
			"bufferView":41,
			"componentType":5126,
			"count":2,
			"type":"VEC3"
		},
		{
			"bufferView":42,
			"componentType":5126,
			"count":2,
			"type":"VEC3"
		},
		{
			"bufferView":43,
			"componentType":5126,
			"count":2,
			"type":"VEC4"
		},
		{
			"bufferView":44,
			"componentType":5126,
			"count":2,
			"type":"VEC3"
		},
		{
			"bufferView":45,
			"componentType":5126,
			"count":2,
			"type":"VEC3"
		},
		{
			"bufferView":46,
			"componentType":5126,
			"count":2,
			"type":"VEC4"
		},
		{
			"bufferView":47,
			"componentType":5126,
			"count":2,
			"type":"VEC3"
		},
		{
			"bufferView":48,
			"componentType":5126,
			"count":2,
			"type":"VEC3"
		},
		{
			"bufferView":49,
			"componentType":5126,
			"count":2,
			"type":"VEC4"
		},
		{
			"bufferView":50,
			"componentType":5126,
			"count":2,
			"type":"VEC3"
		},
		{
			"bufferView":51,
			"componentType":5126,
			"count":2,
			"type":"VEC3"
		},
		{
			"bufferView":52,
			"componentType":5126,
			"count":21,
			"type":"VEC4"
		},
		{
			"bufferView":53,
			"componentType":5126,
			"count":2,
			"type":"VEC3"
		},
		{
			"bufferView":54,
			"componentType":5126,
			"count":2,
			"type":"VEC3"
		},
		{
			"bufferView":55,
			"componentType":5126,
			"count":2,
			"type":"VEC4"
		},
		{
			"bufferView":56,
			"componentType":5126,
			"count":2,
			"type":"VEC3"
		},
		{
			"bufferView":57,
			"componentType":5126,
			"count":2,
			"type":"VEC3"
		},
		{
			"bufferView":58,
			"componentType":5126,
			"count":21,
			"type":"VEC4"
		},
		{
			"bufferView":59,
			"componentType":5126,
			"count":2,
			"type":"VEC3"
		},
		{
			"bufferView":60,
			"componentType":5126,
			"count":2,
			"type":"VEC3"
		},
		{
			"bufferView":61,
			"componentType":5126,
			"count":2,
			"type":"VEC4"
		},
		{
			"bufferView":62,
			"componentType":5126,
			"count":2,
			"type":"VEC3"
		},
		{
			"bufferView":63,
			"componentType":5126,
			"count":2,
			"type":"VEC3"
		},
		{
			"bufferView":64,
			"componentType":5126,
			"count":21,
			"type":"VEC4"
		},
		{
			"bufferView":65,
			"componentType":5126,
			"count":2,
			"type":"VEC3"
		},
		{
			"bufferView":66,
			"componentType":5126,
			"count":2,
			"type":"VEC3"
		},
		{
			"bufferView":67,
			"componentType":5126,
			"count":2,
			"type":"VEC4"
		},
		{
			"bufferView":68,
			"componentType":5126,
			"count":2,
			"type":"VEC3"
		},
		{
			"bufferView":69,
			"componentType":5126,
			"count":2,
			"type":"VEC3"
		},
		{
			"bufferView":70,
			"componentType":5126,
			"count":2,
			"type":"VEC4"
		},
		{
			"bufferView":71,
			"componentType":5126,
			"count":2,
			"type":"VEC3"
		},
		{
			"bufferView":72,
			"componentType":5126,
			"count":2,
			"type":"VEC3"
		},
		{
			"bufferView":73,
			"componentType":5126,
			"count":2,
			"type":"VEC4"
		},
		{
			"bufferView":74,
			"componentType":5126,
			"count":2,
			"type":"VEC3"
		},
		{
			"bufferView":75,
			"componentType":5126,
			"count":21,
			"type":"VEC3"
		},
		{
			"bufferView":76,
			"componentType":5126,
			"count":21,
			"type":"VEC4"
		},
		{
			"bufferView":77,
			"componentType":5126,
			"count":2,
			"type":"VEC3"
		},
		{
			"bufferView":78,
			"componentType":5126,
			"count":2,
			"type":"VEC3"
		},
		{
			"bufferView":79,
			"componentType":5126,
			"count":21,
			"type":"VEC4"
		},
		{
			"bufferView":80,
			"componentType":5126,
			"count":2,
			"type":"VEC3"
		},
		{
			"bufferView":81,
			"componentType":5126,
			"count":2,
			"type":"VEC3"
		},
		{
			"bufferView":82,
			"componentType":5126,
			"count":21,
			"type":"VEC4"
		},
		{
			"bufferView":83,
			"componentType":5126,
			"count":2,
			"type":"VEC3"
		},
		{
			"bufferView":84,
			"componentType":5126,
			"count":21,
			"type":"VEC3"
		},
		{
			"bufferView":85,
			"componentType":5126,
			"count":21,
			"type":"VEC4"
		},
		{
			"bufferView":86,
			"componentType":5126,
			"count":2,
			"type":"VEC3"
		},
		{
			"bufferView":87,
			"componentType":5126,
			"count":21,
			"type":"VEC3"
		},
		{
			"bufferView":88,
			"componentType":5126,
			"count":2,
			"type":"VEC4"
		},
		{
			"bufferView":89,
			"componentType":5126,
			"count":2,
			"type":"VEC3"
		},
		{
			"bufferView":90,
			"componentType":5126,
			"count":21,
			"type":"VEC3"
		},
		{
			"bufferView":91,
			"componentType":5126,
			"count":21,
			"type":"VEC4"
		},
		{
			"bufferView":92,
			"componentType":5126,
			"count":2,
			"type":"VEC3"
		},
		{
			"bufferView":93,
			"componentType":5126,
			"count":2,
			"type":"VEC3"
		},
		{
			"bufferView":94,
			"componentType":5126,
			"count":21,
			"type":"VEC4"
		},
		{
			"bufferView":95,
			"componentType":5126,
			"count":2,
			"type":"VEC3"
		},
		{
			"bufferView":96,
			"componentType":5126,
			"count":2,
			"type":"VEC3"
		},
		{
			"bufferView":97,
			"componentType":5126,
			"count":21,
			"type":"VEC4"
		},
		{
			"bufferView":98,
			"componentType":5126,
			"count":2,
			"type":"VEC3"
		},
		{
			"bufferView":99,
			"componentType":5126,
			"count":21,
			"type":"VEC3"
		},
		{
			"bufferView":100,
			"componentType":5126,
			"count":21,
			"type":"VEC4"
		},
		{
			"bufferView":101,
			"componentType":5126,
			"count":2,
			"type":"VEC3"
		},
		{
			"bufferView":102,
			"componentType":5126,
			"count":21,
			"type":"VEC3"
		},
		{
			"bufferView":103,
			"componentType":5126,
			"count":2,
			"type":"VEC4"
		},
		{
			"bufferView":104,
			"componentType":5126,
			"count":2,
			"type":"VEC3"
		},
		{
			"bufferView":105,
			"componentType":5126,
			"count":21,
			"type":"VEC3"
		},
		{
			"bufferView":106,
			"componentType":5126,
			"count":2,
			"type":"VEC4"
		},
		{
			"bufferView":107,
			"componentType":5126,
			"count":21,
			"type":"VEC3"
		},
		{
			"bufferView":108,
			"componentType":5126,
			"count":2,
			"type":"VEC4"
		},
		{
			"bufferView":109,
			"componentType":5126,
			"count":2,
			"type":"VEC3"
		},
		{
			"bufferView":110,
			"componentType":5126,
			"count":2,
			"type":"VEC3"
		},
		{
			"bufferView":111,
			"componentType":5126,
			"count":2,
			"type":"VEC4"
		},
		{
			"bufferView":112,
			"componentType":5126,
			"count":21,
			"type":"VEC3"
		},
		{
			"bufferView":113,
			"componentType":5126,
			"count":21,
			"type":"VEC4"
		},
		{
			"bufferView":114,
			"componentType":5126,
			"count":1,
			"max":[
				0.5416666666666666
			],
			"min":[
				0.5416666666666666
			],
			"type":"SCALAR"
		},
		{
			"bufferView":115,
			"componentType":5126,
			"count":1,
			"type":"VEC3"
		}
	],
	"bufferViews":[
		{
			"buffer":0,
			"byteLength":2520,
			"byteOffset":0,
			"target":34962
		},
		{
			"buffer":0,
			"byteLength":2520,
			"byteOffset":2520,
			"target":34962
		},
		{
			"buffer":0,
			"byteLength":1680,
			"byteOffset":5040,
			"target":34962
		},
		{
			"buffer":0,
			"byteLength":840,
			"byteOffset":6720,
			"target":34962
		},
		{
			"buffer":0,
			"byteLength":3360,
			"byteOffset":7560,
			"target":34962
		},
		{
			"buffer":0,
			"byteLength":660,
			"byteOffset":10920,
			"target":34963
		},
		{
			"buffer":0,
			"byteLength":2048,
			"byteOffset":11580
		},
		{
			"buffer":0,
			"byteLength":288,
			"byteOffset":13628,
			"target":34962
		},
		{
			"buffer":0,
			"byteLength":288,
			"byteOffset":13916,
			"target":34962
		},
		{
			"buffer":0,
			"byteLength":192,
			"byteOffset":14204,
			"target":34962
		},
		{
			"buffer":0,
			"byteLength":96,
			"byteOffset":14396,
			"target":34962
		},
		{
			"buffer":0,
			"byteLength":384,
			"byteOffset":14492,
			"target":34962
		},
		{
			"buffer":0,
			"byteLength":72,
			"byteOffset":14876,
			"target":34963
		},
		{
			"buffer":0,
			"byteLength":27768,
			"byteOffset":14948,
			"target":34962
		},
		{
			"buffer":0,
			"byteLength":27768,
			"byteOffset":42716,
			"target":34962
		},
		{
			"buffer":0,
			"byteLength":18512,
			"byteOffset":70484,
			"target":34962
		},
		{
			"buffer":0,
			"byteLength":9256,
			"byteOffset":88996,
			"target":34962
		},
		{
			"buffer":0,
			"byteLength":37024,
			"byteOffset":98252,
			"target":34962
		},
		{
			"buffer":0,
			"byteLength":6888,
			"byteOffset":135276,
			"target":34963
		},
		{
			"buffer":0,
			"byteLength":84,
			"byteOffset":142164
		},
		{
			"buffer":0,
			"byteLength":252,
			"byteOffset":142248
		},
		{
			"buffer":0,
			"byteLength":336,
			"byteOffset":142500
		},
		{
			"buffer":0,
			"byteLength":8,
			"byteOffset":142836
		},
		{
			"buffer":0,
			"byteLength":24,
			"byteOffset":142844
		},
		{
			"buffer":0,
			"byteLength":24,
			"byteOffset":142868
		},
		{
			"buffer":0,
			"byteLength":336,
			"byteOffset":142892
		},
		{
			"buffer":0,
			"byteLength":24,
			"byteOffset":143228
		},
		{
			"buffer":0,
			"byteLength":24,
			"byteOffset":143252
		},
		{
			"buffer":0,
			"byteLength":32,
			"byteOffset":143276
		},
		{
			"buffer":0,
			"byteLength":24,
			"byteOffset":143308
		},
		{
			"buffer":0,
			"byteLength":24,
			"byteOffset":143332
		},
		{
			"buffer":0,
			"byteLength":336,
			"byteOffset":143356
		},
		{
			"buffer":0,
			"byteLength":24,
			"byteOffset":143692
		},
		{
			"buffer":0,
			"byteLength":24,
			"byteOffset":143716
		},
		{
			"buffer":0,
			"byteLength":32,
			"byteOffset":143740
		},
		{
			"buffer":0,
			"byteLength":24,
			"byteOffset":143772
		},
		{
			"buffer":0,
			"byteLength":24,
			"byteOffset":143796
		},
		{
			"buffer":0,
			"byteLength":32,
			"byteOffset":143820
		},
		{
			"buffer":0,
			"byteLength":24,
			"byteOffset":143852
		},
		{
			"buffer":0,
			"byteLength":24,
			"byteOffset":143876
		},
		{
			"buffer":0,
			"byteLength":32,
			"byteOffset":143900
		},
		{
			"buffer":0,
			"byteLength":24,
			"byteOffset":143932
		},
		{
			"buffer":0,
			"byteLength":24,
			"byteOffset":143956
		},
		{
			"buffer":0,
			"byteLength":32,
			"byteOffset":143980
		},
		{
			"buffer":0,
			"byteLength":24,
			"byteOffset":144012
		},
		{
			"buffer":0,
			"byteLength":24,
			"byteOffset":144036
		},
		{
			"buffer":0,
			"byteLength":32,
			"byteOffset":144060
		},
		{
			"buffer":0,
			"byteLength":24,
			"byteOffset":144092
		},
		{
			"buffer":0,
			"byteLength":24,
			"byteOffset":144116
		},
		{
			"buffer":0,
			"byteLength":32,
			"byteOffset":144140
		},
		{
			"buffer":0,
			"byteLength":24,
			"byteOffset":144172
		},
		{
			"buffer":0,
			"byteLength":24,
			"byteOffset":144196
		},
		{
			"buffer":0,
			"byteLength":336,
			"byteOffset":144220
		},
		{
			"buffer":0,
			"byteLength":24,
			"byteOffset":144556
		},
		{
			"buffer":0,
			"byteLength":24,
			"byteOffset":144580
		},
		{
			"buffer":0,
			"byteLength":32,
			"byteOffset":144604
		},
		{
			"buffer":0,
			"byteLength":24,
			"byteOffset":144636
		},
		{
			"buffer":0,
			"byteLength":24,
			"byteOffset":144660
		},
		{
			"buffer":0,
			"byteLength":336,
			"byteOffset":144684
		},
		{
			"buffer":0,
			"byteLength":24,
			"byteOffset":145020
		},
		{
			"buffer":0,
			"byteLength":24,
			"byteOffset":145044
		},
		{
			"buffer":0,
			"byteLength":32,
			"byteOffset":145068
		},
		{
			"buffer":0,
			"byteLength":24,
			"byteOffset":145100
		},
		{
			"buffer":0,
			"byteLength":24,
			"byteOffset":145124
		},
		{
			"buffer":0,
			"byteLength":336,
			"byteOffset":145148
		},
		{
			"buffer":0,
			"byteLength":24,
			"byteOffset":145484
		},
		{
			"buffer":0,
			"byteLength":24,
			"byteOffset":145508
		},
		{
			"buffer":0,
			"byteLength":32,
			"byteOffset":145532
		},
		{
			"buffer":0,
			"byteLength":24,
			"byteOffset":145564
		},
		{
			"buffer":0,
			"byteLength":24,
			"byteOffset":145588
		},
		{
			"buffer":0,
			"byteLength":32,
			"byteOffset":145612
		},
		{
			"buffer":0,
			"byteLength":24,
			"byteOffset":145644
		},
		{
			"buffer":0,
			"byteLength":24,
			"byteOffset":145668
		},
		{
			"buffer":0,
			"byteLength":32,
			"byteOffset":145692
		},
		{
			"buffer":0,
			"byteLength":24,
			"byteOffset":145724
		},
		{
			"buffer":0,
			"byteLength":252,
			"byteOffset":145748
		},
		{
			"buffer":0,
			"byteLength":336,
			"byteOffset":146000
		},
		{
			"buffer":0,
			"byteLength":24,
			"byteOffset":146336
		},
		{
			"buffer":0,
			"byteLength":24,
			"byteOffset":146360
		},
		{
			"buffer":0,
			"byteLength":336,
			"byteOffset":146384
		},
		{
			"buffer":0,
			"byteLength":24,
			"byteOffset":146720
		},
		{
			"buffer":0,
			"byteLength":24,
			"byteOffset":146744
		},
		{
			"buffer":0,
			"byteLength":336,
			"byteOffset":146768
		},
		{
			"buffer":0,
			"byteLength":24,
			"byteOffset":147104
		},
		{
			"buffer":0,
			"byteLength":252,
			"byteOffset":147128
		},
		{
			"buffer":0,
			"byteLength":336,
			"byteOffset":147380
		},
		{
			"buffer":0,
			"byteLength":24,
			"byteOffset":147716
		},
		{
			"buffer":0,
			"byteLength":252,
			"byteOffset":147740
		},
		{
			"buffer":0,
			"byteLength":32,
			"byteOffset":147992
		},
		{
			"buffer":0,
			"byteLength":24,
			"byteOffset":148024
		},
		{
			"buffer":0,
			"byteLength":252,
			"byteOffset":148048
		},
		{
			"buffer":0,
			"byteLength":336,
			"byteOffset":148300
		},
		{
			"buffer":0,
			"byteLength":24,
			"byteOffset":148636
		},
		{
			"buffer":0,
			"byteLength":24,
			"byteOffset":148660
		},
		{
			"buffer":0,
			"byteLength":336,
			"byteOffset":148684
		},
		{
			"buffer":0,
			"byteLength":24,
			"byteOffset":149020
		},
		{
			"buffer":0,
			"byteLength":24,
			"byteOffset":149044
		},
		{
			"buffer":0,
			"byteLength":336,
			"byteOffset":149068
		},
		{
			"buffer":0,
			"byteLength":24,
			"byteOffset":149404
		},
		{
			"buffer":0,
			"byteLength":252,
			"byteOffset":149428
		},
		{
			"buffer":0,
			"byteLength":336,
			"byteOffset":149680
		},
		{
			"buffer":0,
			"byteLength":24,
			"byteOffset":150016
		},
		{
			"buffer":0,
			"byteLength":252,
			"byteOffset":150040
		},
		{
			"buffer":0,
			"byteLength":32,
			"byteOffset":150292
		},
		{
			"buffer":0,
			"byteLength":24,
			"byteOffset":150324
		},
		{
			"buffer":0,
			"byteLength":252,
			"byteOffset":150348
		},
		{
			"buffer":0,
			"byteLength":32,
			"byteOffset":150600
		},
		{
			"buffer":0,
			"byteLength":252,
			"byteOffset":150632
		},
		{
			"buffer":0,
			"byteLength":32,
			"byteOffset":150884
		},
		{
			"buffer":0,
			"byteLength":24,
			"byteOffset":150916
		},
		{
			"buffer":0,
			"byteLength":24,
			"byteOffset":150940
		},
		{
			"buffer":0,
			"byteLength":32,
			"byteOffset":150964
		},
		{
			"buffer":0,
			"byteLength":252,
			"byteOffset":150996
		},
		{
			"buffer":0,
			"byteLength":336,
			"byteOffset":151248
		},
		{
			"buffer":0,
			"byteLength":4,
			"byteOffset":151584
		},
		{
			"buffer":0,
			"byteLength":12,
			"byteOffset":151588
		}
	],
	"samplers":[
		{
			"magFilter":9728,
			"minFilter":9984
		},
		{
			"magFilter":9729,
			"minFilter":9987
		}
	],
	"buffers":[
		{
			"byteLength":151600,
			"uri":"mint.bin"
		}
	]
}
